<svg xmlns="http://www.w3.org/2000/svg" xmlns:xlink="http://www.w3.org/1999/xlink" version="1.1" width="256" height="256" viewBox="0 0 256 256" xml:space="preserve">

<defs>
</defs>
<g style="stroke: none; stroke-width: 0; stroke-dasharray: none; stroke-linecap: butt; stroke-linejoin: miter; stroke-miterlimit: 10; fill: none; fill-rule: nonzero; opacity: 1;" transform="translate(1.4065934065934016 1.4065934065934016) scale(2.81 2.81)" >
	<path d="M 63.569 42.009 c -0.154 0 -0.31 -0.036 -0.454 -0.109 l -11.938 -6.083 c -0.386 -0.197 -0.602 -0.62 -0.533 -1.047 l 2.096 -13.232 c 0.067 -0.428 0.403 -0.764 0.831 -0.832 l 13.232 -2.096 c 0.434 -0.066 0.852 0.148 1.047 0.534 l 6.082 11.937 c 0.197 0.386 0.123 0.855 -0.184 1.161 l -9.473 9.474 C 64.084 41.908 63.828 42.009 63.569 42.009 z M 52.733 34.366 l 10.643 5.423 l 8.445 -8.446 L 66.398 20.7 l -11.797 1.868 L 52.733 34.366 z" style="stroke: none; stroke-width: 1; stroke-dasharray: none; stroke-linecap: butt; stroke-linejoin: miter; stroke-miterlimit: 10; fill: rgb(0,0,0); fill-rule: nonzero; opacity: 1;" transform=" matrix(1 0 0 1 0 0) " stroke-linecap="round" />
	<path d="M 61.017 57.967 c -7.742 0 -15.02 -3.015 -20.494 -8.489 c -11.301 -11.3 -11.301 -29.688 0 -40.988 C 45.997 3.015 53.274 0 61.017 0 s 15.021 3.015 20.494 8.489 l 0 0 l 0 0 C 86.985 13.963 90 21.242 90 28.983 s -3.015 15.02 -8.489 20.494 C 76.037 54.952 68.759 57.967 61.017 57.967 z M 61.017 2 c -7.208 0 -13.983 2.807 -19.08 7.903 c -10.521 10.521 -10.521 27.639 0 38.16 c 5.097 5.097 11.872 7.903 19.08 7.903 S 75 53.16 80.097 48.063 S 88 36.191 88 28.983 S 85.193 15 80.097 9.903 l 0 0 C 75 4.807 68.225 2 61.017 2 z" style="stroke: none; stroke-width: 1; stroke-dasharray: none; stroke-linecap: butt; stroke-linejoin: miter; stroke-miterlimit: 10; fill: rgb(0,0,0); fill-rule: nonzero; opacity: 1;" transform=" matrix(1 0 0 1 0 0) " stroke-linecap="round" />
	<path d="M 53.728 22.694 c -0.256 0 -0.512 -0.098 -0.707 -0.293 l -6.35 -6.35 c -0.391 -0.391 -0.391 -1.023 0 -1.414 s 1.023 -0.391 1.414 0 l 6.35 6.35 c 0.391 0.391 0.391 1.023 0 1.414 C 54.239 22.597 53.983 22.694 53.728 22.694 z" style="stroke: none; stroke-width: 1; stroke-dasharray: none; stroke-linecap: butt; stroke-linejoin: miter; stroke-miterlimit: 10; fill: rgb(0,0,0); fill-rule: nonzero; opacity: 1;" transform=" matrix(1 0 0 1 0 0) " stroke-linecap="round" />
	<path d="M 35.624 18.206 c -0.483 0 -0.908 -0.351 -0.986 -0.844 c -0.086 -0.545 0.286 -1.058 0.832 -1.144 l 11.035 -1.748 l 1.748 -11.036 c 0.085 -0.545 0.602 -0.918 1.144 -0.832 c 0.546 0.086 0.918 0.599 0.831 1.144 l -1.861 11.753 c -0.067 0.428 -0.403 0.764 -0.831 0.832 l -11.753 1.861 C 35.729 18.202 35.676 18.206 35.624 18.206 z" style="stroke: none; stroke-width: 1; stroke-dasharray: none; stroke-linecap: butt; stroke-linejoin: miter; stroke-miterlimit: 10; fill: rgb(0,0,0); fill-rule: nonzero; opacity: 1;" transform=" matrix(1 0 0 1 0 0) " stroke-linecap="round" />
	<path d="M 44.661 40.205 c -0.336 0 -0.665 -0.169 -0.854 -0.477 c -0.289 -0.471 -0.141 -1.086 0.33 -1.375 l 6.972 -4.278 c 0.472 -0.289 1.087 -0.142 1.376 0.33 c 0.289 0.471 0.142 1.086 -0.329 1.375 l -6.973 4.278 C 45.02 40.157 44.839 40.205 44.661 40.205 z" style="stroke: none; stroke-width: 1; stroke-dasharray: none; stroke-linecap: butt; stroke-linejoin: miter; stroke-miterlimit: 10; fill: rgb(0,0,0); fill-rule: nonzero; opacity: 1;" transform=" matrix(1 0 0 1 0 0) " stroke-linecap="round" />
	<path d="M 43.831 52.075 c -0.023 0 -0.047 -0.001 -0.071 -0.002 c -0.551 -0.039 -0.966 -0.517 -0.928 -1.067 l 0.779 -11.146 l -10.36 -4.186 c -0.512 -0.207 -0.76 -0.79 -0.553 -1.302 s 0.79 -0.759 1.302 -0.553 l 11.034 4.458 c 0.402 0.163 0.653 0.565 0.623 0.997 l -0.83 11.87 C 44.791 51.672 44.351 52.075 43.831 52.075 z" style="stroke: none; stroke-width: 1; stroke-dasharray: none; stroke-linecap: butt; stroke-linejoin: miter; stroke-miterlimit: 10; fill: rgb(0,0,0); fill-rule: nonzero; opacity: 1;" transform=" matrix(1 0 0 1 0 0) " stroke-linecap="round" />
	<path d="M 66.959 20.599 c -0.179 0 -0.358 -0.047 -0.522 -0.147 c -0.471 -0.289 -0.618 -0.905 -0.329 -1.375 l 4.278 -6.973 c 0.288 -0.472 0.903 -0.619 1.376 -0.33 c 0.471 0.289 0.618 0.905 0.329 1.375 l -4.278 6.973 C 67.624 20.429 67.295 20.599 66.959 20.599 z" style="stroke: none; stroke-width: 1; stroke-dasharray: none; stroke-linecap: butt; stroke-linejoin: miter; stroke-miterlimit: 10; fill: rgb(0,0,0); fill-rule: nonzero; opacity: 1;" transform=" matrix(1 0 0 1 0 0) " stroke-linecap="round" />
	<path d="M 71.238 13.626 c -0.405 0 -0.773 -0.246 -0.927 -0.625 L 65.854 1.967 c -0.207 -0.512 0.04 -1.095 0.552 -1.302 c 0.513 -0.206 1.095 0.04 1.302 0.553 l 4.187 10.36 l 11.146 -0.779 c 0.536 -0.032 1.028 0.376 1.067 0.928 c 0.038 0.551 -0.377 1.029 -0.929 1.067 l -11.87 0.83 C 71.284 13.625 71.261 13.626 71.238 13.626 z" style="stroke: none; stroke-width: 1; stroke-dasharray: none; stroke-linecap: butt; stroke-linejoin: miter; stroke-miterlimit: 10; fill: rgb(0,0,0); fill-rule: nonzero; opacity: 1;" transform=" matrix(1 0 0 1 0 0) " stroke-linecap="round" />
	<path d="M 79.877 34.026 c -0.07 0 -0.143 -0.007 -0.214 -0.023 l -6.834 -1.491 c -0.54 -0.118 -0.882 -0.65 -0.764 -1.19 c 0.117 -0.539 0.65 -0.881 1.189 -0.764 l 6.834 1.491 c 0.54 0.118 0.882 0.65 0.764 1.19 C 80.751 33.707 80.337 34.026 79.877 34.026 z" style="stroke: none; stroke-width: 1; stroke-dasharray: none; stroke-linecap: butt; stroke-linejoin: miter; stroke-miterlimit: 10; fill: rgb(0,0,0); fill-rule: nonzero; opacity: 1;" transform=" matrix(1 0 0 1 0 0) " stroke-linecap="round" />
	<path d="M 84.698 44.905 c -0.384 0 -0.75 -0.222 -0.915 -0.595 l -4.821 -10.878 c -0.176 -0.396 -0.076 -0.86 0.246 -1.149 l 8.857 -7.948 c 0.411 -0.368 1.042 -0.336 1.412 0.076 c 0.369 0.411 0.335 1.043 -0.076 1.412 l -8.316 7.463 L 85.611 43.5 c 0.224 0.505 -0.004 1.096 -0.509 1.319 C 84.971 44.877 84.833 44.905 84.698 44.905 z" style="stroke: none; stroke-width: 1; stroke-dasharray: none; stroke-linecap: butt; stroke-linejoin: miter; stroke-miterlimit: 10; fill: rgb(0,0,0); fill-rule: nonzero; opacity: 1;" transform=" matrix(1 0 0 1 0 0) " stroke-linecap="round" />
	<path d="M 65.058 48.844 c -0.46 0 -0.874 -0.319 -0.977 -0.787 l -1.489 -6.834 c -0.117 -0.54 0.225 -1.072 0.765 -1.19 c 0.536 -0.12 1.072 0.225 1.19 0.764 l 1.489 6.834 c 0.117 0.54 -0.225 1.072 -0.765 1.19 C 65.2 48.837 65.128 48.844 65.058 48.844 z" style="stroke: none; stroke-width: 1; stroke-dasharray: none; stroke-linecap: butt; stroke-linejoin: miter; stroke-miterlimit: 10; fill: rgb(0,0,0); fill-rule: nonzero; opacity: 1;" transform=" matrix(1 0 0 1 0 0) " stroke-linecap="round" />
	<path d="M 57.111 57.7 c -0.238 0 -0.477 -0.084 -0.668 -0.256 c -0.411 -0.369 -0.445 -1.001 -0.076 -1.412 l 7.947 -8.856 c 0.29 -0.322 0.753 -0.42 1.149 -0.246 l 10.879 4.821 c 0.505 0.224 0.732 0.814 0.509 1.319 c -0.223 0.504 -0.813 0.735 -1.319 0.509 l -10.215 -4.526 l -7.462 8.315 C 57.658 57.588 57.385 57.7 57.111 57.7 z" style="stroke: none; stroke-width: 1; stroke-dasharray: none; stroke-linecap: butt; stroke-linejoin: miter; stroke-miterlimit: 10; fill: rgb(0,0,0); fill-rule: nonzero; opacity: 1;" transform=" matrix(1 0 0 1 0 0) " stroke-linecap="round" />
	<path d="M 10.953 80.047 c -0.256 0 -0.512 -0.098 -0.707 -0.293 c -0.391 -0.391 -0.391 -1.023 0 -1.414 L 34.8 53.786 c 0.391 -0.391 1.023 -0.391 1.414 0 s 0.391 1.023 0 1.414 L 11.66 79.754 C 11.465 79.949 11.209 80.047 10.953 80.047 z" style="stroke: none; stroke-width: 1; stroke-dasharray: none; stroke-linecap: butt; stroke-linejoin: miter; stroke-miterlimit: 10; fill: rgb(0,0,0); fill-rule: nonzero; opacity: 1;" transform=" matrix(1 0 0 1 0 0) " stroke-linecap="round" />
	<path d="M 1 61.563 c -0.256 0 -0.512 -0.098 -0.707 -0.293 c -0.391 -0.391 -0.391 -1.023 0 -1.414 l 24.554 -24.554 c 0.391 -0.391 1.023 -0.391 1.414 0 s 0.391 1.023 0 1.414 L 1.707 61.27 C 1.512 61.465 1.256 61.563 1 61.563 z" style="stroke: none; stroke-width: 1; stroke-dasharray: none; stroke-linecap: butt; stroke-linejoin: miter; stroke-miterlimit: 10; fill: rgb(0,0,0); fill-rule: nonzero; opacity: 1;" transform=" matrix(1 0 0 1 0 0) " stroke-linecap="round" />
	<path d="M 29.437 90 c -0.256 0 -0.512 -0.098 -0.707 -0.293 c -0.391 -0.391 -0.391 -1.023 0 -1.414 l 24.554 -24.554 c 0.391 -0.391 1.023 -0.391 1.414 0 s 0.391 1.023 0 1.414 L 30.144 89.707 C 29.949 89.902 29.693 90 29.437 90 z" style="stroke: none; stroke-width: 1; stroke-dasharray: none; stroke-linecap: butt; stroke-linejoin: miter; stroke-miterlimit: 10; fill: rgb(0,0,0); fill-rule: nonzero; opacity: 1;" transform=" matrix(1 0 0 1 0 0) " stroke-linecap="round" />
</g>
</svg>