<svg xmlns="http://www.w3.org/2000/svg" xmlns:xlink="http://www.w3.org/1999/xlink" version="1.1" width="256" height="256" viewBox="0 0 256 256" xml:space="preserve">

<defs>
</defs>
<g style="stroke: none; stroke-width: 0; stroke-dasharray: none; stroke-linecap: butt; stroke-linejoin: miter; stroke-miterlimit: 10; fill: none; fill-rule: nonzero; opacity: 1;" transform="translate(1.4065934065934016 1.4065934065934016) scale(2.81 2.81)" >
	<path d="M 25.692 64.585 c -7.259 0 -13.164 -5.905 -13.164 -13.164 s 5.905 -13.164 13.164 -13.164 s 13.164 5.905 13.164 13.164 S 32.951 64.585 25.692 64.585 z M 25.692 40.257 c -6.156 0 -11.164 5.008 -11.164 11.164 c 0 6.156 5.008 11.164 11.164 11.164 s 11.164 -5.008 11.164 -11.164 C 36.856 45.265 31.848 40.257 25.692 40.257 z" style="stroke: none; stroke-width: 1; stroke-dasharray: none; stroke-linecap: butt; stroke-linejoin: miter; stroke-miterlimit: 10; fill: rgb(0,0,0); fill-rule: nonzero; opacity: 1;" transform=" matrix(1 0 0 1 0 0) " stroke-linecap="round" />
	<path d="M 25.692 77.112 C 11.525 77.112 0 65.587 0 51.421 c 0 -14.167 11.525 -25.692 25.692 -25.692 h 20.454 c 0.324 0 0.628 0.157 0.815 0.421 l 4.972 7.005 h 13.158 l 4.973 -7.005 c 0.188 -0.265 0.491 -0.421 0.815 -0.421 H 89 c 0.553 0 1 0.448 1 1 v 13.739 c 0 0.396 -0.234 0.755 -0.597 0.915 L 50.358 58.607 C 47.184 69.527 37.11 77.112 25.692 77.112 z M 25.692 27.729 C 12.628 27.729 2 38.357 2 51.421 c 0 13.063 10.628 23.691 23.692 23.691 c 10.678 0 20.081 -7.192 22.867 -17.49 c 0.078 -0.292 0.285 -0.532 0.562 -0.654 L 88 39.815 V 27.729 H 71.396 l -4.973 7.005 c -0.188 0.265 -0.491 0.421 -0.815 0.421 H 51.416 c -0.324 0 -0.628 -0.157 -0.815 -0.421 l -4.972 -7.005 H 25.692 z" style="stroke: none; stroke-width: 1; stroke-dasharray: none; stroke-linecap: butt; stroke-linejoin: miter; stroke-miterlimit: 10; fill: rgb(0,0,0); fill-rule: nonzero; opacity: 1;" transform=" matrix(1 0 0 1 0 0) " stroke-linecap="round" />
	<path d="M 59.004 26.755 c -0.553 0 -1 -0.448 -1 -1 V 13.887 c 0 -0.552 0.447 -1 1 -1 s 1 0.448 1 1 v 11.868 C 60.004 26.308 59.557 26.755 59.004 26.755 z" style="stroke: none; stroke-width: 1; stroke-dasharray: none; stroke-linecap: butt; stroke-linejoin: miter; stroke-miterlimit: 10; fill: rgb(0,0,0); fill-rule: nonzero; opacity: 1;" transform=" matrix(1 0 0 1 0 0) " stroke-linecap="round" />
	<path d="M 64.352 26.756 c -0.14 0 -0.281 -0.03 -0.416 -0.092 c -0.502 -0.23 -0.723 -0.824 -0.492 -1.326 l 4.873 -10.61 c 0.231 -0.502 0.825 -0.723 1.326 -0.491 c 0.502 0.23 0.723 0.824 0.492 1.326 l -4.873 10.61 C 65.093 26.54 64.73 26.756 64.352 26.756 z" style="stroke: none; stroke-width: 1; stroke-dasharray: none; stroke-linecap: butt; stroke-linejoin: miter; stroke-miterlimit: 10; fill: rgb(0,0,0); fill-rule: nonzero; opacity: 1;" transform=" matrix(1 0 0 1 0 0) " stroke-linecap="round" />
	<path d="M 53.656 26.756 c -0.379 0 -0.741 -0.216 -0.91 -0.583 l -4.873 -10.61 c -0.23 -0.502 -0.01 -1.096 0.492 -1.326 c 0.501 -0.231 1.095 -0.011 1.326 0.491 l 4.873 10.61 c 0.23 0.502 0.01 1.096 -0.492 1.326 C 53.938 26.726 53.796 26.756 53.656 26.756 z" style="stroke: none; stroke-width: 1; stroke-dasharray: none; stroke-linecap: butt; stroke-linejoin: miter; stroke-miterlimit: 10; fill: rgb(0,0,0); fill-rule: nonzero; opacity: 1;" transform=" matrix(1 0 0 1 0 0) " stroke-linecap="round" />
</g>
</svg>